<?xml version="1.0" standalone="no"?>
<!DOCTYPE svg PUBLIC "-//W3C//DTD SVG 20010904//EN"
 "http://www.w3.org/TR/2001/REC-SVG-20010904/DTD/svg10.dtd">
<svg version="1.0" xmlns="http://www.w3.org/2000/svg"
 width="3464.000000pt" height="3464.000000pt" viewBox="0 0 3464.000000 3464.000000"
 preserveAspectRatio="xMidYMid meet">

<g transform="translate(0.000000,3464.000000) scale(0.100000,-0.100000)"
fill="#000000" stroke="none">
<path d="M17060 30304 c-14 -1 -126 -8 -250 -14 -564 -29 -1022 -82 -1635
-190 -195 -34 -695 -148 -855 -195 -25 -7 -70 -20 -100 -28 -791 -225 -1485
-510 -2099 -861 -827 -473 -1635 -1166 -2247 -1926 -946 -1175 -1499 -2552
-1663 -4140 -35 -342 -46 -565 -46 -965 1 -971 117 -1817 370 -2685 67 -231
240 -728 295 -845 5 -11 28 -65 51 -120 145 -347 365 -771 575 -1105 611 -975
1348 -1722 2254 -2282 567 -351 1273 -669 1880 -847 41 -13 86 -26 100 -31 22
-8 112 -33 210 -61 399 -110 954 -212 1440 -264 468 -50 621 -55 1785 -60
1074 -6 1252 -11 1382 -41 202 -46 310 -101 423 -214 181 -181 270 -435 270
-771 0 -209 -38 -353 -132 -500 -135 -212 -384 -367 -708 -443 -353 -83 -648
-106 -1381 -106 -1220 0 -2133 83 -2839 257 -181 44 -442 130 -547 178 -17 8
-36 15 -43 15 -12 0 -815 -604 -826 -621 -9 -15 14 -29 196 -122 712 -364
1622 -593 2760 -692 451 -40 829 -55 1335 -56 467 0 702 11 985 47 973 121
1620 453 1957 1004 171 280 252 610 253 1028 0 266 -18 432 -71 662 -95 405
-331 803 -604 1015 -249 194 -532 305 -933 367 -131 20 -188 21 -1322 28
-1274 8 -1480 16 -1920 71 -1028 127 -1946 420 -2745 873 -732 417 -1369 946
-1871 1556 -508 616 -932 1430 -1184 2270 -17 58 -36 116 -41 130 -10 28 -96
364 -109 425 -46 224 -82 414 -100 530 -11 77 -25 167 -30 200 -59 390 -91
1055 -72 1502 17 382 31 546 82 898 14 100 57 330 80 430 32 136 83 345 90
370 6 17 26 84 46 150 213 713 569 1439 996 2034 469 652 1016 1194 1638 1623
800 551 1862 1000 2905 1227 55 12 118 26 140 32 295 69 882 152 1330 188 404
33 502 36 1090 35 621 -1 907 -13 1420 -59 571 -51 1128 -132 1660 -241 988
-202 2027 -534 2828 -903 37 -17 97 -45 135 -62 106 -49 416 -205 537 -271
613 -334 1187 -730 1664 -1147 58 -51 110 -90 117 -87 20 8 824 608 823 615 0
5 -103 99 -242 222 -499 440 -1161 901 -1802 1254 -38 21 -86 47 -105 58 -162
91 -708 357 -890 432 -36 15 -83 35 -105 46 -104 47 -373 155 -590 236 -198
74 -692 241 -835 283 -41 12 -86 25 -100 30 -25 8 -56 17 -225 65 -210 60
-695 180 -890 220 -33 7 -105 22 -160 33 -993 208 -2191 324 -3310 320 -247 0
-461 -2 -475 -4z"/>
<path d="M17060 28224 c-277 -10 -773 -52 -1045 -89 -1130 -152 -2079 -466
-2900 -958 -835 -501 -1558 -1226 -2067 -2072 -87 -144 -264 -491 -322 -630
-20 -49 -41 -99 -46 -110 -38 -81 -124 -329 -201 -580 -62 -206 -146 -616
-183 -905 -42 -320 -50 -469 -50 -900 1 -440 10 -600 54 -961 96 -773 298
-1452 625 -2094 216 -425 468 -803 784 -1174 146 -172 449 -476 611 -615 562
-480 1225 -839 1965 -1065 39 -12 84 -26 100 -31 77 -24 362 -93 518 -125 256
-52 400 -73 782 -115 281 -31 643 -40 1640 -40 965 -1 1148 -5 1385 -30 828
-86 1466 -383 1871 -870 384 -464 597 -983 684 -1675 32 -249 35 -783 6 -980
-66 -444 -174 -772 -362 -1092 -196 -334 -506 -669 -819 -885 -267 -184 -634
-355 -975 -453 -33 -9 -80 -23 -105 -31 -225 -66 -562 -127 -969 -174 -633
-73 -1945 -45 -2766 60 -214 28 -653 97 -760 120 -22 4 -78 16 -125 25 -474
95 -1150 301 -1475 450 -16 7 -73 32 -125 55 -115 50 -396 191 -450 225 -22
14 -42 25 -45 25 -7 0 -93 52 -244 148 -121 78 -135 84 -155 72 -11 -7 -77
-56 -146 -110 -69 -53 -226 -175 -350 -270 -124 -95 -242 -187 -262 -203 -21
-16 -38 -32 -38 -35 1 -18 327 -244 526 -364 201 -121 270 -159 474 -261 160
-80 191 -94 385 -180 218 -96 620 -240 910 -326 94 -28 184 -56 200 -61 17 -5
130 -35 250 -65 788 -200 1489 -305 2440 -367 256 -16 1317 -17 1525 0 298 24
482 44 745 82 252 36 655 127 890 200 55 18 113 36 129 41 31 9 128 45 236 86
494 190 926 454 1280 781 669 620 1060 1355 1195 2247 63 422 63 1020 -1 1465
-72 505 -198 926 -398 1330 -193 390 -408 692 -709 995 -152 153 -197 193
-332 296 -413 313 -929 537 -1510 653 -214 43 -224 45 -390 65 -355 44 -359
44 -1625 51 -1253 8 -1348 11 -1680 50 -271 32 -561 85 -815 150 -153 39 -184
48 -360 106 -417 137 -802 328 -1155 573 -697 483 -1303 1264 -1637 2111 -190
483 -292 914 -362 1535 -32 277 -37 887 -11 1175 62 687 219 1258 495 1810
420 839 1118 1569 1952 2042 163 92 474 242 628 302 66 26 136 53 155 61 39
15 171 62 266 93 186 63 557 159 774 202 183 35 202 39 335 60 226 35 257 40
395 55 413 46 785 65 1255 65 910 -1 1719 -71 2540 -221 148 -28 230 -44 425
-84 94 -20 509 -121 570 -139 25 -8 97 -28 160 -46 408 -113 995 -319 1294
-454 17 -8 58 -26 91 -41 585 -260 1116 -569 1555 -907 63 -48 129 -100 147
-114 32 -26 33 -26 57 -8 88 67 766 617 772 626 8 12 1 18 -201 181 -656 530
-1436 977 -2310 1327 -228 91 -749 274 -910 320 -22 6 -60 17 -85 25 -245 72
-323 94 -510 141 -408 105 -865 199 -1255 258 -478 73 -878 116 -1425 152
-221 14 -1174 26 -1410 18z"/>
<path d="M16980 26140 c-550 -28 -1114 -112 -1575 -236 -1071 -286 -1852 -809
-2417 -1619 -248 -356 -451 -811 -548 -1230 -11 -49 -25 -108 -30 -130 -52
-214 -90 -613 -90 -936 0 -1196 329 -2161 1000 -2934 563 -648 1360 -1037
2385 -1164 355 -44 356 -44 1640 -51 788 -5 1300 -11 1385 -18 571 -49 1025
-137 1475 -287 105 -35 226 -79 260 -95 11 -5 61 -26 110 -46 117 -49 405
-196 524 -268 482 -294 893 -673 1257 -1161 357 -477 605 -982 797 -1621 90
-301 168 -751 202 -1174 30 -371 18 -937 -26 -1270 -117 -878 -416 -1627 -910
-2281 -267 -354 -645 -732 -984 -985 -769 -573 -1740 -942 -2880 -1093 -370
-49 -576 -67 -944 -82 -290 -13 -1094 -6 -1341 11 -444 30 -519 36 -790 66
-606 67 -1345 202 -1810 329 -30 8 -107 29 -170 46 -796 217 -1515 501 -2155
852 -238 131 -289 161 -530 320 -173 114 -349 242 -512 373 -32 26 -33 26 -57
8 -88 -67 -766 -617 -772 -626 -4 -6 8 -23 27 -40 88 -74 324 -262 418 -333
205 -154 643 -438 866 -560 28 -16 84 -47 127 -71 267 -151 991 -483 1208
-554 14 -5 50 -18 80 -30 477 -186 1193 -395 1779 -520 430 -91 745 -144 1251
-210 211 -28 617 -64 965 -87 379 -25 1407 -25 1730 0 537 41 932 93 1340 177
306 62 495 109 715 177 63 19 131 39 150 45 57 16 356 121 395 139 11 5 50 20
87 34 88 32 300 127 458 204 624 303 1188 711 1675 1212 1017 1045 1561 2287
1655 3778 26 408 5 1071 -45 1421 -3 19 -12 82 -20 140 -62 456 -205 998 -378
1435 -77 195 -107 262 -220 488 -286 573 -662 1093 -1122 1552 -219 220 -355
338 -567 497 -468 352 -1015 632 -1593 817 -71 23 -143 45 -160 51 -75 24
-394 101 -530 129 -179 36 -486 84 -610 96 -33 3 -98 10 -145 16 -269 30 -631
39 -1660 39 -1153 1 -1308 6 -1625 56 -863 136 -1434 468 -1830 1064 -360 543
-534 1188 -535 1980 0 672 152 1205 486 1705 194 291 537 620 843 809 143 88
376 203 546 268 153 59 465 154 585 178 25 5 86 18 135 29 79 17 217 41 410
71 609 96 1853 93 2780 -5 558 -59 1027 -142 1535 -269 293 -74 655 -192 950
-311 73 -29 74 -30 183 -79 44 -20 81 -36 84 -36 9 0 363 -180 403 -205 22
-14 42 -25 45 -25 7 0 93 -52 244 -148 121 -78 135 -84 155 -72 11 7 77 56
146 110 69 53 226 175 350 270 124 95 242 187 263 203 20 16 37 32 37 36 0 12
-289 216 -435 307 -571 358 -1235 648 -1965 857 -543 156 -1076 270 -1630 348
-322 45 -722 84 -1120 109 -212 14 -1195 20 -1410 10z"/>
<path d="M17285 24069 c-241 -6 -463 -21 -585 -39 -36 -5 -90 -12 -120 -15
-30 -3 -77 -10 -105 -16 -27 -5 -102 -18 -165 -30 -594 -108 -1083 -342 -1395
-667 -352 -369 -506 -859 -467 -1495 37 -597 218 -1053 552 -1387 253 -253
579 -400 1047 -472 132 -20 189 -21 1403 -28 1226 -8 1388 -12 1722 -44 465
-46 954 -135 1328 -243 186 -53 228 -66 315 -95 702 -233 1339 -568 1943
-1021 542 -406 984 -852 1361 -1374 92 -128 292 -432 321 -489 8 -16 24 -45
36 -64 125 -210 338 -661 456 -970 45 -118 155 -445 188 -560 12 -41 28 -95
35 -120 14 -45 99 -393 108 -440 3 -14 14 -70 25 -125 22 -106 32 -159 62
-350 34 -216 55 -400 82 -720 16 -189 16 -1088 0 -1260 -36 -393 -75 -668
-132 -930 -56 -261 -75 -338 -139 -565 -63 -219 -200 -596 -291 -795 -10 -22
-29 -68 -44 -102 -45 -108 -211 -432 -310 -605 -209 -366 -524 -806 -796
-1113 -404 -454 -792 -798 -1250 -1106 -772 -521 -1739 -934 -2745 -1172 -123
-30 -420 -92 -505 -107 -193 -33 -249 -42 -370 -59 -634 -93 -1211 -127 -1960
-118 -596 8 -991 31 -1565 92 -503 54 -1191 166 -1595 260 -446 104 -725 177
-1005 261 -255 77 -734 239 -885 299 -19 8 -111 44 -205 81 -322 127 -560 233
-875 391 -302 151 -383 195 -670 366 -461 274 -886 580 -1276 917 -71 61 -134
108 -140 106 -21 -8 -824 -608 -823 -615 0 -5 103 -99 242 -222 347 -306 868
-690 1312 -966 373 -231 870 -498 1255 -673 63 -29 144 -65 180 -82 327 -150
947 -385 1400 -530 52 -16 115 -36 140 -43 25 -8 92 -28 150 -45 409 -123
1014 -271 1410 -345 179 -34 423 -76 515 -91 640 -98 1125 -148 1825 -186 310
-17 1309 -17 1575 0 679 43 1186 105 1730 213 110 22 218 44 240 49 22 5 81
19 130 30 628 143 1385 399 1940 655 99 46 383 188 450 225 193 107 243 135
345 197 414 250 875 596 1255 942 33 30 161 156 285 281 521 523 903 1029
1282 1695 209 369 470 981 593 1390 14 50 30 101 35 115 19 54 100 364 133
510 94 411 150 781 194 1280 25 281 25 1165 0 1465 -34 405 -68 668 -131 1025
-119 675 -361 1463 -622 2028 -19 41 -34 75 -34 77 0 2 -35 75 -77 162 -458
942 -1080 1772 -1803 2404 -804 703 -1919 1277 -3050 1571 -481 125 -1027 217
-1535 258 -329 27 -518 32 -1700 40 -693 4 -1273 11 -1290 15 -16 3 -52 11
-80 16 -252 52 -426 163 -534 343 -84 141 -122 259 -147 455 -54 434 66 732
383 951 212 148 542 231 1078 275 259 20 1187 21 1618 0 717 -34 1233 -90
1687 -181 324 -65 644 -159 817 -239 17 -8 36 -15 43 -15 12 0 815 604 826
621 9 15 -14 29 -196 122 -323 166 -641 287 -1040 397 -226 63 -482 122 -646
151 -32 5 -97 17 -144 25 -257 46 -564 86 -865 114 -399 36 -628 49 -1000 56
-148 2 -322 5 -385 7 -63 1 -223 -1 -355 -4z"/>
</g>
</svg>
