<svg id="svg" version="1.1" xmlns="http://www.w3.org/2000/svg" xmlns:xlink="http://www.w3.org/1999/xlink" width="400" height="400" viewBox="0, 0, 400,400"><g id="svgg"><path id="path0" d="M118.167 86.215 C 116.837 86.882,115.375 87.644,114.917 87.908 C 113.281 88.852,109.573 91.055,109.000 91.424 C 108.679 91.631,106.992 92.679,105.250 93.753 C 103.508 94.828,101.821 95.873,101.500 96.076 C 101.179 96.278,99.904 97.067,98.667 97.829 C 96.427 99.207,93.413 101.182,91.667 102.415 C 90.888 102.965,90.449 103.525,88.750 106.139 C 87.650 107.831,86.287 109.868,85.722 110.664 C 85.156 111.461,84.579 112.369,84.439 112.681 C 84.299 112.994,84.070 113.438,83.930 113.667 C 83.790 113.896,83.500 114.458,83.286 114.917 C 83.072 115.375,82.814 115.900,82.713 116.083 C 82.284 116.864,80.652 120.619,80.702 120.711 C 80.714 120.733,80.619 120.938,80.492 121.167 C 80.366 121.396,80.253 121.621,80.242 121.667 C 80.231 121.712,80.128 121.975,80.013 122.250 C 79.309 123.930,77.115 130.118,76.763 131.417 C 76.738 131.508,76.641 131.771,76.547 132.000 C 76.387 132.389,76.134 133.390,76.147 133.578 C 76.151 133.624,76.039 133.982,75.899 134.373 C 75.760 134.764,75.272 136.546,74.815 138.333 C 73.917 141.842,73.309 144.573,72.754 147.583 C 72.704 147.858,72.593 148.421,72.507 148.833 C 72.422 149.246,72.234 150.371,72.090 151.333 C 71.945 152.296,71.758 153.533,71.673 154.083 C 70.825 159.600,70.435 165.307,70.437 172.167 C 70.441 187.721,73.631 205.562,78.170 215.417 C 78.255 215.600,78.657 216.537,79.064 217.500 C 80.217 220.226,82.174 224.170,83.629 226.697 C 84.204 227.697,84.716 228.519,86.214 230.846 C 87.072 232.178,89.799 235.676,91.121 237.139 C 92.512 238.678,95.090 241.169,96.412 242.250 C 96.748 242.525,97.199 242.910,97.415 243.105 C 97.631 243.300,98.282 243.746,98.862 244.096 C 99.442 244.445,101.492 245.778,103.417 247.058 C 108.630 250.524,113.763 252.915,118.162 253.925 C 133.329 257.410,149.422 253.390,167.075 241.708 C 168.812 240.558,170.312 239.551,170.408 239.470 C 170.505 239.390,170.996 239.022,171.500 238.654 C 173.056 237.517,173.275 237.349,177.910 233.745 C 182.240 230.377,182.977 229.794,183.394 229.407 C 183.498 229.311,184.369 228.606,185.330 227.842 C 186.290 227.078,187.707 225.920,188.478 225.268 C 189.249 224.616,190.184 223.836,190.556 223.534 C 191.325 222.910,192.799 221.667,193.069 221.415 C 193.169 221.322,193.698 220.872,194.246 220.415 C 195.107 219.697,195.843 219.063,196.567 218.417 C 196.669 218.325,197.278 217.800,197.918 217.251 C 198.559 216.701,199.168 216.176,199.271 216.084 C 199.374 215.992,199.815 215.617,200.251 215.250 C 200.687 214.883,201.203 214.445,201.397 214.275 C 201.591 214.106,202.125 213.643,202.583 213.246 C 203.042 212.850,203.642 212.328,203.917 212.087 C 204.192 211.845,204.705 211.408,205.057 211.116 C 205.409 210.823,205.859 210.445,206.057 210.275 C 207.560 208.988,208.275 208.371,208.594 208.083 C 209.199 207.538,209.829 206.994,211.585 205.501 C 212.501 204.722,213.332 204.010,213.433 203.918 C 213.534 203.825,214.053 203.375,214.587 202.917 C 215.121 202.458,215.639 202.007,215.738 201.913 C 215.836 201.819,216.929 200.914,218.167 199.901 C 238.704 183.087,256.682 177.425,270.250 183.497 C 278.262 187.083,283.233 191.807,285.587 198.076 C 287.750 203.832,288.394 213.847,287.186 222.917 C 287.088 223.650,286.966 224.625,286.915 225.083 C 286.864 225.542,286.751 226.404,286.664 227.000 C 286.577 227.596,286.465 228.421,286.415 228.833 C 286.364 229.246,286.289 229.771,286.248 230.000 C 286.206 230.229,286.137 230.642,286.094 230.917 C 285.963 231.762,285.350 235.342,285.095 236.753 C 284.963 237.488,284.593 239.363,284.274 240.920 C 283.955 242.476,283.653 244.012,283.603 244.333 C 283.553 244.654,283.366 245.629,283.187 246.500 C 283.009 247.371,282.817 248.383,282.761 248.750 C 282.704 249.117,282.549 250.017,282.415 250.750 C 282.165 252.124,281.093 259.000,280.921 260.333 C 280.868 260.746,280.754 261.608,280.667 262.250 C 280.316 264.849,280.169 266.155,280.066 267.583 C 280.007 268.408,279.936 269.123,279.909 269.171 C 279.846 269.283,279.667 273.613,279.609 276.417 C 279.412 285.948,280.815 292.597,283.866 296.583 C 285.474 298.685,286.125 299.490,286.491 299.833 C 286.736 300.063,287.248 300.632,287.629 301.100 C 288.973 302.747,291.597 304.879,292.574 305.116 C 292.671 305.139,293.162 305.278,293.667 305.424 C 296.669 306.294,301.067 305.440,303.278 303.558 C 303.477 303.388,303.852 303.100,304.111 302.917 C 305.102 302.217,307.512 299.639,308.192 298.552 C 308.582 297.928,309.655 296.292,310.576 294.917 C 311.962 292.848,313.333 290.448,313.333 290.092 C 313.333 290.047,313.532 289.576,313.775 289.047 C 316.325 283.485,318.794 273.980,320.410 263.500 C 320.664 261.850,320.993 259.421,321.076 258.582 C 321.130 258.031,321.206 257.394,321.244 257.165 C 322.143 251.845,322.663 237.539,322.293 228.329 C 322.099 223.507,322.044 222.734,321.489 216.917 C 320.836 210.078,319.514 201.650,318.168 195.750 C 316.237 187.289,314.766 182.426,312.165 175.917 C 310.547 171.866,307.618 165.952,306.210 163.892 C 306.032 163.630,305.668 163.079,305.402 162.667 C 303.650 159.949,300.444 156.111,298.588 154.511 C 298.315 154.276,297.957 153.950,297.791 153.787 C 297.626 153.624,296.987 153.183,296.370 152.807 C 295.754 152.431,293.998 151.278,292.467 150.245 C 290.936 149.211,289.286 148.178,288.800 147.949 C 284.410 145.877,281.202 144.825,277.333 144.190 C 272.322 143.366,267.102 143.725,261.583 145.272 C 258.221 146.215,254.517 147.474,252.583 148.332 C 252.400 148.414,251.688 148.719,251.000 149.011 C 248.022 150.273,242.968 152.947,239.583 155.049 C 237.930 156.076,234.446 158.368,234.333 158.503 C 234.287 158.558,233.725 158.973,233.083 159.424 C 232.442 159.875,231.842 160.303,231.750 160.374 C 231.658 160.446,231.283 160.727,230.917 161.000 C 230.079 161.623,230.323 161.441,227.580 163.498 C 226.299 164.460,225.213 165.289,225.167 165.341 C 225.121 165.392,224.521 165.879,223.833 166.423 C 222.415 167.544,222.043 167.845,221.773 168.087 C 221.669 168.181,220.983 168.741,220.250 169.331 C 219.517 169.922,218.879 170.445,218.833 170.494 C 218.787 170.543,218.300 170.957,217.750 171.415 C 217.200 171.872,216.666 172.326,216.563 172.424 C 216.460 172.521,216.059 172.859,215.673 173.175 C 215.287 173.491,214.728 173.975,214.431 174.250 C 213.966 174.680,213.420 175.161,211.436 176.888 C 210.791 177.449,208.272 179.744,207.653 180.333 C 207.317 180.654,206.005 181.892,204.738 183.083 C 203.472 184.275,202.158 185.512,201.819 185.833 C 201.480 186.154,200.507 187.054,199.657 187.833 C 198.807 188.612,197.870 189.475,197.574 189.750 C 197.279 190.025,196.748 190.507,196.394 190.821 C 196.040 191.135,195.408 191.697,194.990 192.071 C 194.572 192.444,193.747 193.172,193.156 193.687 C 189.851 196.574,189.005 197.305,188.354 197.833 C 187.960 198.154,187.475 198.554,187.277 198.723 C 185.999 199.809,185.182 200.486,183.333 201.989 C 182.188 202.920,181.137 203.774,181.000 203.885 C 180.862 203.997,180.450 204.313,180.083 204.586 C 179.717 204.860,179.267 205.220,179.083 205.388 C 178.600 205.829,172.622 210.304,171.250 211.252 C 170.608 211.695,169.746 212.293,169.333 212.580 C 163.360 216.743,154.274 221.215,147.333 223.409 C 137.520 226.511,127.317 224.448,118.083 217.492 C 115.839 215.802,112.893 212.862,111.661 211.083 C 111.343 210.625,111.040 210.213,110.987 210.167 C 109.922 209.240,107.388 204.052,106.186 200.333 C 103.107 190.814,102.440 181.818,103.764 167.667 C 103.812 167.162,103.881 166.563,103.919 166.333 C 103.956 166.104,104.033 165.504,104.088 165.000 C 104.183 164.139,104.749 160.417,104.924 159.500 C 104.968 159.271,105.048 158.826,105.101 158.511 C 105.273 157.489,106.496 151.542,106.749 150.500 C 106.782 150.362,106.924 149.725,107.065 149.083 C 107.553 146.854,109.659 138.658,110.148 137.083 C 110.656 135.449,110.914 134.591,110.937 134.458 C 110.949 134.390,110.973 134.315,110.992 134.292 C 111.010 134.269,111.050 134.122,111.080 133.966 C 111.136 133.675,111.616 132.117,111.788 131.667 C 111.841 131.529,111.903 131.342,111.926 131.250 C 112.064 130.706,113.567 126.166,113.747 125.750 C 113.866 125.475,114.013 125.063,114.075 124.833 C 114.246 124.195,115.836 119.649,116.086 119.083 C 116.208 118.808,116.362 118.363,116.430 118.094 C 116.497 117.826,116.652 117.413,116.775 117.178 C 116.897 116.942,116.998 116.634,116.999 116.492 C 117.000 116.350,117.065 116.162,117.144 116.075 C 117.222 115.988,117.681 114.867,118.163 113.583 C 118.644 112.300,119.150 110.987,119.286 110.667 C 119.422 110.346,119.594 109.933,119.667 109.750 C 119.740 109.567,119.914 109.154,120.053 108.833 C 120.193 108.513,120.455 107.875,120.635 107.417 C 120.816 106.958,121.167 106.133,121.416 105.583 C 121.664 105.033,121.927 104.433,122.000 104.250 C 122.073 104.067,122.246 103.654,122.384 103.333 C 122.838 102.279,123.114 101.586,123.149 101.417 C 123.168 101.325,123.278 101.100,123.394 100.917 C 123.511 100.733,123.781 100.133,123.996 99.583 C 124.211 99.033,124.487 98.465,124.610 98.320 C 124.733 98.175,124.833 97.993,124.833 97.914 C 124.833 97.836,124.993 97.429,125.189 97.011 C 125.385 96.592,125.803 95.688,126.118 95.000 C 126.433 94.313,126.761 93.638,126.847 93.500 C 126.932 93.362,127.048 93.138,127.104 93.000 C 127.161 92.862,127.527 92.083,127.919 91.268 L 128.632 89.787 124.998 87.393 C 120.739 84.587,121.237 84.673,118.167 86.215 " stroke="none" fill="#040404" fill-rule="evenodd"></path><path id="path1" d="M90.219 103.542 C 89.881 103.915,85.898 109.919,85.527 110.614 C 85.016 111.574,85.454 111.020,86.625 109.227 C 87.335 108.140,88.527 106.331,89.274 105.208 C 90.021 104.085,90.615 103.167,90.595 103.167 C 90.575 103.167,90.405 103.335,90.219 103.542 M290.667 148.896 C 290.667 149.035,296.524 152.865,296.608 152.781 C 296.662 152.727,294.263 151.113,291.042 149.037 C 290.835 148.904,290.667 148.840,290.667 148.896 M98.672 244.129 C 98.678 244.250,104.653 248.215,105.479 248.645 C 106.431 249.141,105.431 248.432,102.125 246.270 C 100.223 245.025,98.669 244.062,98.672 244.129 M310.083 295.785 C 308.054 298.838,307.838 299.192,308.277 298.750 C 308.684 298.340,311.729 293.673,311.644 293.589 C 311.611 293.556,310.908 294.544,310.083 295.785 " stroke="none" fill="#575757" fill-rule="evenodd"></path><path id="path2" d="" stroke="none" fill="#343434" fill-rule="evenodd"></path></g></svg>